<svg id="visual" viewBox="0 0 900 600" width="900" height="600" xmlns="http://www.w3.org/2000/svg" xmlns:xlink="http://www.w3.org/1999/xlink" version="1.1"><rect x="0" y="0" width="900" height="600" fill="#FFFFFF"></rect><defs><linearGradient id="grad1_0" x1="33.3%" y1="0%" x2="100%" y2="100%"><stop offset="20%" stop-color="#131313" stop-opacity="1"></stop><stop offset="80%" stop-color="#131313" stop-opacity="1"></stop></linearGradient></defs><defs><linearGradient id="grad1_1" x1="33.3%" y1="0%" x2="100%" y2="100%"><stop offset="20%" stop-color="#131313" stop-opacity="1"></stop><stop offset="80%" stop-color="#7e7e7e" stop-opacity="1"></stop></linearGradient></defs><defs><linearGradient id="grad1_2" x1="33.3%" y1="0%" x2="100%" y2="100%"><stop offset="20%" stop-color="#ffffff" stop-opacity="1"></stop><stop offset="80%" stop-color="#7e7e7e" stop-opacity="1"></stop></linearGradient></defs><defs><linearGradient id="grad2_0" x1="0%" y1="0%" x2="66.7%" y2="100%"><stop offset="20%" stop-color="#131313" stop-opacity="1"></stop><stop offset="80%" stop-color="#131313" stop-opacity="1"></stop></linearGradient></defs><defs><linearGradient id="grad2_1" x1="0%" y1="0%" x2="66.7%" y2="100%"><stop offset="20%" stop-color="#7e7e7e" stop-opacity="1"></stop><stop offset="80%" stop-color="#131313" stop-opacity="1"></stop></linearGradient></defs><defs><linearGradient id="grad2_2" x1="0%" y1="0%" x2="66.7%" y2="100%"><stop offset="20%" stop-color="#7e7e7e" stop-opacity="1"></stop><stop offset="80%" stop-color="#ffffff" stop-opacity="1"></stop></linearGradient></defs><g transform="translate(900, 0)"><path d="M0 216.3C-38.9 211.3 -77.9 206.3 -108.2 187.3C-138.5 168.4 -160.1 135.5 -176.7 102C-193.3 68.5 -204.8 34.2 -216.3 0L0 0Z" fill="#bdbdbd"></path><path d="M0 144.2C-26 140.9 -51.9 137.5 -72.1 124.9C-92.3 112.3 -106.7 90.4 -117.8 68C-128.8 45.6 -136.5 22.8 -144.2 0L0 0Z" fill="#454545"></path><path d="M0 72.1C-13 70.4 -26 68.8 -36.1 62.4C-46.2 56.1 -53.4 45.2 -58.9 34C-64.4 22.8 -68.3 11.4 -72.1 0L0 0Z" fill="#131313"></path></g><g transform="translate(0, 600)"><path d="M0 -216.3C43.2 -213.8 86.4 -211.2 108.2 -187.3C129.9 -163.5 130.2 -118.3 144.6 -83.5C159.1 -48.7 187.7 -24.4 216.3 0L0 0Z" fill="#bdbdbd"></path><path d="M0 -144.2C28.8 -142.5 57.6 -140.8 72.1 -124.9C86.6 -109 86.8 -78.9 96.4 -55.7C106.1 -32.5 125.1 -16.2 144.2 0L0 0Z" fill="#454545"></path><path d="M0 -72.1C14.4 -71.3 28.8 -70.4 36.1 -62.4C43.3 -54.5 43.4 -39.4 48.2 -27.8C53 -16.2 62.6 -8.1 72.1 0L0 0Z" fill="#131313"></path></g></svg>