<svg id="visual" viewBox="0 0 900 600" width="900" height="600" xmlns="http://www.w3.org/2000/svg" xmlns:xlink="http://www.w3.org/1999/xlink" version="1.1"><rect x="0" y="0" width="900" height="600" fill="#000000"></rect><defs><linearGradient id="grad1_0" x1="33.3%" y1="0%" x2="100%" y2="100%"><stop offset="20%" stop-color="#ffffff" stop-opacity="1"></stop><stop offset="80%" stop-color="#ffffff" stop-opacity="1"></stop></linearGradient></defs><defs><linearGradient id="grad1_1" x1="33.3%" y1="0%" x2="100%" y2="100%"><stop offset="20%" stop-color="#ffffff" stop-opacity="1"></stop><stop offset="80%" stop-color="#a2a2a2" stop-opacity="1"></stop></linearGradient></defs><defs><linearGradient id="grad1_2" x1="33.3%" y1="0%" x2="100%" y2="100%"><stop offset="20%" stop-color="#4e4e4e" stop-opacity="1"></stop><stop offset="80%" stop-color="#a2a2a2" stop-opacity="1"></stop></linearGradient></defs><defs><linearGradient id="grad1_3" x1="33.3%" y1="0%" x2="100%" y2="100%"><stop offset="20%" stop-color="#4e4e4e" stop-opacity="1"></stop><stop offset="80%" stop-color="#000000" stop-opacity="1"></stop></linearGradient></defs><defs><linearGradient id="grad2_0" x1="0%" y1="0%" x2="66.7%" y2="100%"><stop offset="20%" stop-color="#ffffff" stop-opacity="1"></stop><stop offset="80%" stop-color="#ffffff" stop-opacity="1"></stop></linearGradient></defs><defs><linearGradient id="grad2_1" x1="0%" y1="0%" x2="66.7%" y2="100%"><stop offset="20%" stop-color="#a2a2a2" stop-opacity="1"></stop><stop offset="80%" stop-color="#ffffff" stop-opacity="1"></stop></linearGradient></defs><defs><linearGradient id="grad2_2" x1="0%" y1="0%" x2="66.7%" y2="100%"><stop offset="20%" stop-color="#a2a2a2" stop-opacity="1"></stop><stop offset="80%" stop-color="#4e4e4e" stop-opacity="1"></stop></linearGradient></defs><defs><linearGradient id="grad2_3" x1="0%" y1="0%" x2="66.7%" y2="100%"><stop offset="20%" stop-color="#000000" stop-opacity="1"></stop><stop offset="80%" stop-color="#4e4e4e" stop-opacity="1"></stop></linearGradient></defs><g transform="translate(900, 0)"><path d="M0 405.6C-29.9 335 -59.9 264.3 -100.6 243C-141.4 221.7 -193 249.7 -244.7 244.7C-296.3 239.6 -347.9 201.5 -374.7 155.2C-401.6 108.9 -403.6 54.5 -405.6 0L0 0Z" fill="#292929"></path><path d="M0 304.2C-22.5 251.2 -44.9 198.2 -75.5 182.2C-106.1 166.2 -144.8 187.3 -183.5 183.5C-222.2 179.7 -260.9 151.1 -281.1 116.4C-301.2 81.7 -302.7 40.9 -304.2 0L0 0Z" fill="#777777"></path><path d="M0 202.8C-15 167.5 -29.9 132.1 -50.3 121.5C-70.7 110.8 -96.5 124.8 -122.3 122.3C-148.1 119.8 -174 100.8 -187.4 77.6C-200.8 54.5 -201.8 27.2 -202.8 0L0 0Z" fill="#d0d0d0"></path><path d="M0 101.4C-7.5 83.7 -15 66.1 -25.2 60.7C-35.4 55.4 -48.3 62.4 -61.2 61.2C-74.1 59.9 -87 50.4 -93.7 38.8C-100.4 27.2 -100.9 13.6 -101.4 0L0 0Z" fill="#ffffff"></path></g><g transform="translate(0, 600)"><path d="M0 -405.6C52.5 -394.1 105.1 -382.6 148.9 -359.4C192.7 -336.2 227.7 -301.4 267.3 -267.3C306.9 -233.1 350.9 -199.7 374.7 -155.2C398.6 -110.8 402.1 -55.4 405.6 0L0 0Z" fill="#292929"></path><path d="M0 -304.2C39.4 -295.6 78.8 -286.9 111.6 -269.5C144.5 -252.2 170.8 -226.1 200.5 -200.5C230.1 -174.9 263.2 -149.7 281.1 -116.4C298.9 -83.1 301.6 -41.5 304.2 0L0 0Z" fill="#777777"></path><path d="M0 -202.8C26.3 -197 52.5 -191.3 74.4 -179.7C96.3 -168.1 113.9 -150.7 133.6 -133.6C153.4 -116.6 175.5 -99.8 187.4 -77.6C199.3 -55.4 201 -27.7 202.8 0L0 0Z" fill="#d0d0d0"></path><path d="M0 -101.4C13.1 -98.5 26.3 -95.6 37.2 -89.8C48.2 -84.1 56.9 -75.4 66.8 -66.8C76.7 -58.3 87.7 -49.9 93.7 -38.8C99.6 -27.7 100.5 -13.8 101.4 0L0 0Z" fill="#ffffff"></path></g></svg>